<svg width="82" height="50" viewBox="0 0 82 50" fill="none" xmlns="http://www.w3.org/2000/svg">
<path d="M17.7748 10.076L20.0788 1.5H25.1988L20.0788 17.5H15.5988L13.0388 8.956L10.4788 17.5H5.99875L0.87875 1.5H5.99875L8.30275 10.076L10.7988 1.5H15.2788L17.7748 10.076ZM42.1268 11.42H30.7668C31.3001 12.9133 32.5801 13.66 34.6068 13.66C35.9081 13.66 36.9321 13.2547 37.6788 12.444L41.5188 14.652C39.9614 16.8493 37.6361 17.948 34.5428 17.948C31.8761 17.948 29.7214 17.148 28.0788 15.548C26.4788 13.948 25.6788 11.932 25.6788 9.5C25.6788 7.11067 26.4681 5.10533 28.0468 3.484C29.6468 1.86267 31.6948 1.052 34.1908 1.052C36.5161 1.052 38.4468 1.86267 39.9828 3.484C41.5401 5.06267 42.3188 7.068 42.3188 9.5C42.3188 10.1827 42.2548 10.8227 42.1268 11.42ZM30.6708 7.836H37.5508C37.0814 6.15067 35.9508 5.308 34.1588 5.308C32.3028 5.308 31.1401 6.15067 30.6708 7.836Z" fill="#B6A0F2"/>
<path d="M33.2475 42.5H28.4475V19.14H33.2475V42.5ZM41.176 24.26C40.6213 24.8147 39.9493 25.092 39.16 25.092C38.3707 25.092 37.688 24.8147 37.112 24.26C36.5573 23.684 36.28 23.0013 36.28 22.212C36.28 21.4227 36.5573 20.7507 37.112 20.196C37.688 19.62 38.3707 19.332 39.16 19.332C39.9493 19.332 40.6213 19.62 41.176 20.196C41.752 20.7507 42.04 21.4227 42.04 22.212C42.04 23.0013 41.752 23.684 41.176 24.26ZM41.56 42.5H36.76V26.5H41.56V42.5Z" fill="#3D2973"/>
<path d="M65.0061 12.174C68.8608 12.174 72.1845 13.6883 74.9771 16.717C77.7305 19.7063 79.1071 23.384 79.1071 27.75C79.1071 32.1553 77.7305 35.8527 74.9771 38.842C72.2238 41.8313 68.9001 43.326 65.0061 43.326C61.1908 43.326 58.2605 42.1263 56.2151 39.727V42.5H47.3651V1.2H56.2151V15.773C58.2605 13.3737 61.1908 12.174 65.0061 12.174ZM58.1621 33.001C59.4995 34.299 61.1908 34.948 63.2361 34.948C65.2815 34.948 66.9531 34.299 68.2511 33.001C69.5885 31.703 70.2571 29.9527 70.2571 27.75C70.2571 25.5473 69.5885 23.797 68.2511 22.499C66.9531 21.201 65.2815 20.552 63.2361 20.552C61.1908 20.552 59.4995 21.201 58.1621 22.499C56.8641 23.797 56.2151 25.5473 56.2151 27.75C56.2151 29.9527 56.8641 31.703 58.1621 33.001Z" fill="#B6A0F2"/>
<rect x="3.5" y="22.5" width="19" height="19" rx="9.5" fill="#F45858"/>
</svg>
