<svg xmlns="http://www.w3.org/2000/svg" width="252" height="228" fill="none" viewBox="0 0 252 228">
  <path fill="#1A229A" fill-opacity=".9" d="M104.756 17.13c0-.257-.094-.404-.281-.44a.906.906 0 0 0-.176-.017h-.949v-4.728h5.027v4.728h-1.406v.457h4.711c-.094-.28-.252-.433-.475-.457h-.949V7.041h1.424v-.458h-4.711v.458h1.406v4.394h-5.027V7.041h1.406v-.458h-4.694v.458h1.407v9.632h-1.407v.457h4.694Zm16.506-7.295-.071-3.252h-8.384v.458h1.406v9.632h-1.406v.457h8.384l.071-3.252h-.405l-.316.985c-.316 1.043-.832 1.635-1.547 1.775a2.263 2.263 0 0 1-.404.035h-2.496v-4.728h3.533v-.51h-3.533V7.041h2.496c.926 0 1.564.562 1.916 1.687.012.047.023.088.035.123l.316.984h.405Zm9.474 7.295.088-3.638h-.422l-.386 1.37c-.246.891-.627 1.448-1.143 1.67a1.864 1.864 0 0 1-.738.141h-2.18V7.041h1.494v-.458h-4.781v.458h1.406v9.632h-1.406v.457h8.068Zm5.608-10.09c1.054 0 1.699.534 1.933 1.6.059.258.088.533.088.826-.07 1.63-.814 2.461-2.232 2.496h-1.354V7.041h1.565Zm.211 10.09c0-.257-.094-.404-.282-.44a.888.888 0 0 0-.175-.017h-1.319v-4.2h1.512c1.992 0 3.275-.593 3.85-1.776a2.95 2.95 0 0 0 .281-1.301c0-1.137-.498-1.945-1.494-2.426-.551-.258-1.207-.386-1.969-.386h-5.467v.457h1.406v9.632h-1.406v.457h5.063Zm11.689 0c-.094-.28-.252-.433-.474-.457h-.967v-4.007l2.531-5.133a1.15 1.15 0 0 1 .932-.492c.257 0 .404-.094.439-.282a.874.874 0 0 0 .018-.176h-3.112v.458h1.407l-2.549 5.027-2.707-5.027h1.336v-.458h-4.36v.458h.914l3.252 5.783v3.85h-1.441v.456h4.781Z"/>
  <path fill="#F89E8F" stroke="#7B61FF" stroke-width=".08" d="m42.088 104.407-4.734 7.602-2.572-.838-.41-10.397V72.995l5.086-14.7 5.904-11.236 14.261-13.638 9.937-6.037 12.158-5.254h5.085v2.013l-7.89 3.577-11.283 5.7-7.19 7.21 9.12-6.54 14.729-7.713 9.82-3.633 5.201.392v2.85l-13.56 4.751-14.028 5.87-9.235 9.725 11.047-8.496 16.015-7.099 12.684-4.75h4.734v3.856l-16.483 5.03-15.138 7.099-9.761 9.334 13.326-9.614 17.886-7.601 7.306-.391v4.136L92.59 41.693l-15.14 7.77-10.286 7.825-6.02 9.335 8.884-8.329 8.884-4.304h5.436v3.298l-8.183 6.316-10.813 9.39-9.177 10.062-8.592 14.253-5.495 7.098Zm161.791 12.186 4.735-7.602 2.571.838.41 10.397v27.779l-5.086 14.701-5.903 11.235-14.262 13.638-9.937 6.037-12.157 5.254h-5.085v-2.013l7.89-3.577 11.281-5.701 7.19-7.211-9.119 6.54-14.729 7.714-9.82 3.633-5.202-.391v-2.851l13.561-4.751 14.028-5.869 9.235-9.726-11.047 8.496-16.016 7.099-12.683 4.751h-4.735v-3.857l16.483-5.03 15.139-7.099 9.761-9.334-13.327 9.613-17.886 7.602-7.306.391v-4.136l11.515-3.857 15.139-7.769 10.287-7.825 6.02-9.335-8.884 8.329-8.885 4.304h-5.436v-3.298l8.184-6.316 10.813-9.391 9.177-10.061 8.592-14.253 5.494-7.098Z"/>
  <path fill="#1A229A" fill-opacity=".9" stroke="#7B61FF" stroke-width=".08" d="m134.195 29.974-7.634-4.999 1.037-2.401 10.876.266 18.492 1.119 10.5.635 15.02 5.78 11.353 6.344 13.333 14.472 5.673 9.865 4.715 11.934-.321 4.854-2.1-.127-3.235-7.757-5.238-11.126-7.071-7.317 6.25 9.115 7.12 14.545 3.171 9.6-.736 4.94-2.975-.18-4.103-13.241-5.239-13.759-9.567-9.427 8.169 11.08 6.397 15.732 4.158 12.405-.299 4.518-4.025-.243-4.209-16.049-6.453-14.896-9.125-9.905 9.192 13.326 6.804 17.55-.053 6.997-4.317-.261-3.298-11.233-7.152-14.938-7.518-10.312-9.361-6.335 8.13 9.005 3.931 8.75-.343 5.188-3.442-.208-6.075-8.209-9.117-10.912-9.921-9.393-14.333-9.1-7.061-5.692ZM120.726 183.64l8.183 4.129-.743 2.5-10.836.927-18.504.915-10.507.52-15.615-4.097-12.038-5.058-14.98-12.915-6.817-9.178-6.114-11.339-.263-4.856 2.101-.104 4.144 7.351 6.536 10.478 7.902 6.494-7.3-8.37-8.817-13.669-4.301-9.19.14-4.988 2.977-.147 5.661 12.705 6.854 13.093 10.634 8.318-9.443-10.112-8.24-14.928-5.618-11.867-.244-4.522 4.028-.199 6.105 15.482 8.195 14.09 10.252 8.84-10.728-12.23-8.863-16.689-.786-6.957 4.32-.213 4.622 10.797 8.896 14.056 8.703 9.42 10.06 5.268-9.157-8.055-4.953-8.262-.281-5.192 3.444-.17 7.019 7.489 10.365 9.841 10.98 8.245 15.33 7.469 7.697 4.88Z"/>
  <ellipse cx="124.036" cy="108.991" fill="#F89E8F" rx="53.424" ry="51.311"/>
  <g filter="url(#a)">
    <path fill="#F9CCBF" d="M154.021 74.671v-1.788l3.098.67 5.202 4.416 6.663 7.322 4.559 9.223 2.28 8.44v11.514l-2.28 6.596-3.857 9.223-9.645 8.719-1.461-2.292-3.039-4.862v-10.788l-1.345-1.397v-6.317h-12.859l-1.87-1.453-2.689-2.515-.818-3.074.818-7.323 2.689-1.453 1.403-3.018 3.156-2.403-1.987-.727v-3.969l1.402-1.788h3.098v-.895l-1.695-1.844h-2.805v-2.739l3.39-2.85h4.208l2.455-2.628h1.929Z"/>
  </g>
  <path fill="#F89E8F" stroke="#fff" stroke-width=".08" d="M150.981 88.533v1.454h-1.695l.819 1.788 2.805-.447c.624 0 1.976.09 2.397.447.421.358.175.745 0 .894l.818 2.516 2.104.559 1.695-.56c.702-.502 2.175-1.52 2.455-1.564.281-.045 1.559.615 2.163.95l2.338 1.565c.468.313 1.753-.13 2.338-.391v-2.46h-2.923v-1.956l1.462-2.18-1.462-.95-2.805.335-3.215-.335-1.052-2.18-2.689.447-2.981 1.006-2.572 1.062Z"/>
  <g filter="url(#b)">
    <path fill="#F9CCBF" d="M95.804 71.877c.526-.261 2.455-1.185 5.962-2.795l3.274-1.845 3.623-1.453 5.845-1.62-1.811-.672-4.677 1.007-7.247 2.738-7.599 3.857-5.553 4.64-7.014 9.166-3.916 8.105h3.215l.701 7.098 3.507 2.851 2.163 3.577h6.371l3.156 1.901 2.455 2.347 4.15.839.643 3.13h-2.279v4.136l1.636 2.963 1.988 3.241 4.266 3.075v8.104l1.169 6.484 1.286 5.59 2.397 2.515 2.805 1.956 2.923-.726-.526-2.013-.701-2.459v-4.863h2.221l2.338-1.844 1.695-3.634 1.695-1.006v-3.465l2.747-1.733h1.578v-4.527h1.169l.76-2.683 1.169-1.174-1.169-3.801-4.384-2.124-6.546-4.36-6.371-3.968-7.774-.671-5.378 1.509-.993-3.353-2.514-2.348-5.611-.615.526-2.851 2.63-2.291h4.969l3.624 1.677.643-3.019 2.104-1.006 3.39-3.353 2.163-3.075h4.15l4.442-2.627 3.682-1.509-.701-4.08-.76-2.124-3.624-.615-.292-1.789h1.695l3.682-.559v-3.242l-6.546-2.235h-8.593l-6.78 1.62-4.793 1.566v4.136l-2.455-1.286v-4.415Z"/>
  </g>
  <path fill="#1A229A" fill-opacity=".9" d="M71.043 216.11c0-1.043-.563-1.881-1.688-2.514-.222-.117-.908-.428-2.056-.931-1.043-.446-1.7-.903-1.969-1.372a1.696 1.696 0 0 1-.21-.826c0-.785.38-1.33 1.142-1.634a2.955 2.955 0 0 1 1.09-.194c.984 0 1.734.334 2.25 1.002.34.457.504 1.014.492 1.67h.527v-3.076c-.281 0-.445.088-.492.264a1.263 1.263 0 0 0-.035.334c-.832-.458-1.77-.686-2.813-.686-1.265 0-2.25.352-2.953 1.055-.469.492-.703 1.066-.703 1.722 0 .985.55 1.787 1.652 2.409.2.105.867.404 2.004.896 1.055.469 1.723.943 2.004 1.424.153.269.229.562.229.879 0 .82-.399 1.412-1.196 1.775a3.082 3.082 0 0 1-1.248.246c-1.793-.023-2.789-1.119-2.988-3.287h-.527v3.639c.28 0 .445-.082.492-.246a2.46 2.46 0 0 0 .035-.51c.902.598 1.928.896 3.076.896 1.348 0 2.39-.363 3.13-1.089a2.55 2.55 0 0 0 .755-1.846ZM76 218.43h-.879v-3.797c0-1.066.37-1.84 1.108-2.32.304-.199.62-.299.949-.299.715 0 1.213.334 1.494 1.002.129.317.193.668.193 1.055v3.304c0 .54-.129.862-.386.967-.165.059-.446.088-.844.088v.44h3.867c0-.258-.088-.399-.264-.422a.723.723 0 0 0-.175-.018h-.88v-4.359c0-1.278-.421-2.145-1.265-2.602a2.327 2.327 0 0 0-1.055-.246c-.867 0-1.594.317-2.18.949-.246.27-.433.575-.562.914v-5.642h-2.637v.439h1.319v9.492c0 .54-.153.862-.457.967-.176.059-.463.088-.862.088v.44h3.956c0-.258-.088-.399-.264-.422a.723.723 0 0 0-.176-.018Zm12.832.615c.902 0 1.4-.545 1.494-1.634.012-.071.018-.135.018-.194l-.457-.017c-.082.855-.31 1.289-.686 1.3-.304-.023-.463-.328-.474-.914v-3.709c0-1.675-.838-2.56-2.514-2.654h-.316c-1.313 0-2.192.305-2.637.914-.14.199-.211.399-.211.598 0 .363.17.574.51.633a.952.952 0 0 0 .175.017c.27 0 .47-.17.598-.51.164-.433.275-.691.334-.773.223-.293.568-.439 1.037-.439 1.102.07 1.67.673 1.705 1.81v1.108c-2.754 0-4.33.574-4.728 1.722-.07.223-.106.463-.106.721 0 .891.393 1.5 1.178 1.828.316.129.65.193 1.002.193.855 0 1.576-.293 2.162-.878.211-.223.37-.458.475-.704.14 1.043.62 1.571 1.441 1.582Zm-3.498-.703c-.715 0-1.154-.357-1.318-1.072a2.611 2.611 0 0 1-.053-.545c0-.785.451-1.283 1.353-1.494.48-.106 1.178-.164 2.092-.176v1.406c-.176.809-.603 1.377-1.283 1.706-.27.117-.533.175-.791.175Zm9.563.088H93.63v-3.498c0-1.066.328-1.922.984-2.566.258-.246.475-.375.65-.387.2 0 .382.146.546.439.187.329.363.516.527.563a.67.67 0 0 0 .21.035c.352 0 .575-.17.669-.51a.66.66 0 0 0 .035-.211c0-.527-.27-.849-.809-.966a1.667 1.667 0 0 0-.334-.036c-.703 0-1.33.299-1.88.897a3.391 3.391 0 0 0-.616.949l-.07-1.74h-2.549v.439h1.319v5.537c0 .54-.153.862-.457.967-.176.059-.463.088-.862.088v.44h4.342c0-.258-.088-.399-.264-.422a.723.723 0 0 0-.175-.018Zm6.574 0h-.879v-7.031h-2.725v.439h1.406v5.537c0 .54-.181.868-.544.985-.176.047-.463.07-.862.07v.44h4.043c0-.258-.088-.399-.264-.422a.866.866 0 0 0-.175-.018Zm-.668-9.597c0-.411-.182-.704-.545-.879a1.045 1.045 0 0 0-.404-.088c-.41 0-.704.187-.88.562a.968.968 0 0 0-.087.405c0 .433.193.732.58.896.129.047.258.07.386.07.411 0 .698-.187.862-.562a.977.977 0 0 0 .088-.404Zm5.59 9.597h-.791v-3.797c.035-1.09.421-1.875 1.16-2.355.316-.199.638-.299.967-.299.714 0 1.201.334 1.459 1.002a2.5 2.5 0 0 1 .158.914v3.48c0 .54-.153.862-.457.967-.176.059-.463.088-.862.088v.44h3.955c0-.258-.087-.399-.263-.422a.727.727 0 0 0-.176-.018h-.879v-4.359c0-1.172-.404-2.01-1.213-2.514a2.33 2.33 0 0 0-1.213-.334c-.867 0-1.582.346-2.144 1.037a3.57 3.57 0 0 0-.51.897l-.07-1.758h-2.549v.439h1.318v5.537c0 .54-.152.862-.457.967-.176.059-.463.088-.861.088v.44h3.867c0-.258-.088-.399-.264-.422a.718.718 0 0 0-.175-.018Zm8.314-4.43c.023-1.546.609-2.326 1.758-2.337 1.148.023 1.728.802 1.74 2.337-.023 1.594-.603 2.397-1.74 2.409-1.16-.024-1.746-.826-1.758-2.409Zm1.775-2.777c-1.054 0-1.892.34-2.513 1.02a2.59 2.59 0 0 0-.668 1.775c0 .891.433 1.629 1.301 2.215.082.059.164.111.246.158-.75 0-1.219.322-1.407.967a2.034 2.034 0 0 0-.052.457c.011.621.263 1.084.756 1.389-.387.41-.581.826-.581 1.248 0 .644.381 1.125 1.143 1.441.481.211 1.072.316 1.775.316 1.782 0 2.959-.433 3.534-1.3.187-.293.281-.604.281-.932 0-1.008-.58-1.588-1.74-1.74a3.06 3.06 0 0 0-.475-.035l-3.199-.071c-.539-.035-.815-.269-.826-.703 0-.304.193-.498.58-.58.082-.012.17-.017.263-.017l1.547.017c1.043 0 1.875-.351 2.496-1.055a2.612 2.612 0 0 0 .668-1.793c-.011-.878-.351-1.582-1.019-2.109.105-.375.304-.598.597-.668a.567.567 0 0 1 .141-.017c.164 0 .34.087.527.263.129.117.247.176.352.176.293-.07.463-.258.51-.562 0-.364-.17-.61-.51-.739a1.123 1.123 0 0 0-.387-.07c-.551 0-.996.246-1.336.738a2.305 2.305 0 0 0-.298.615 3.703 3.703 0 0 0-1.706-.404Zm0 10.529c-1.16 0-1.892-.304-2.197-.914a1.092 1.092 0 0 1-.123-.492c.012-.316.152-.633.422-.949.234.047.428.07.58.07l2.707.035c.879.012 1.389.211 1.529.598a.992.992 0 0 1 .053.352c0 .515-.48.89-1.441 1.125a6.312 6.312 0 0 1-1.53.175Zm11.954-3.322h-.879v-7.031h-2.725v.439h1.406v5.537c0 .54-.181.868-.545.985-.175.047-.463.07-.861.07v.44h4.043c0-.258-.088-.399-.264-.422a.866.866 0 0 0-.175-.018Zm-.668-9.597c0-.411-.182-.704-.545-.879a1.047 1.047 0 0 0-.405-.088c-.41 0-.703.187-.879.562a.977.977 0 0 0-.087.405c0 .433.193.732.58.896.129.047.257.07.386.07.411 0 .698-.187.862-.562a.977.977 0 0 0 .088-.404Zm4.974 9.738c.809 0 1.354-.246 1.635-.738.105-.176.158-.37.158-.581 0-.492-.357-.914-1.072-1.265a11.146 11.146 0 0 0-.756-.352c-.961-.398-1.6-.773-1.916-1.125a1.985 1.985 0 0 1-.51-1.353c0-.809.446-1.377 1.336-1.705.41-.153.856-.229 1.336-.229.774 0 1.442.164 2.004.492 0-.34.082-.533.246-.58.07-.011.147-.017.229-.017v2.197h-.457c-.024-1.078-.621-1.623-1.793-1.635-.879 0-1.424.258-1.635.774-.059.14-.088.287-.088.439 0 .504.363.932 1.09 1.283.164.082.422.194.773.334.949.387 1.582.756 1.899 1.108.34.375.509.82.509 1.336 0 .949-.503 1.582-1.511 1.898a3.982 3.982 0 0 1-1.266.193c-.844-.011-1.576-.222-2.197-.632 0 .304-.076.48-.229.527-.07.012-.152.018-.246.018v-2.672h.492c.024 1.511.68 2.273 1.969 2.285Zm7.822-3.358c0 1.418.522 2.479 1.565 3.182.644.434 1.377.65 2.197.65 1.219 0 2.139-.427 2.76-1.283.141-.199.252-.398.334-.597l-.457-.159c-.434.926-1.149 1.436-2.145 1.53a2.395 2.395 0 0 1-.281.017c-.832 0-1.482-.416-1.951-1.248-.352-.633-.527-1.383-.527-2.25 0-1.535.404-2.56 1.212-3.076.34-.211.715-.316 1.125-.316.633 0 1.014.246 1.143.738a7.3 7.3 0 0 1 .088.439c.07.469.199.762.387.879.117.059.246.094.386.106.399.023.651-.141.756-.492a.824.824 0 0 0 .035-.229c0-.598-.38-1.09-1.142-1.477a3.882 3.882 0 0 0-1.758-.404c-1.57 0-2.666.639-3.287 1.916-.293.61-.44 1.301-.44 2.074Zm13.817 3.832c.902 0 1.4-.545 1.494-1.634.012-.071.018-.135.018-.194l-.457-.017c-.082.855-.311 1.289-.686 1.3-.305-.023-.463-.328-.475-.914v-3.709c0-1.675-.837-2.56-2.513-2.654h-.317c-1.312 0-2.191.305-2.636.914a1.03 1.03 0 0 0-.211.598c0 .363.17.574.509.633a.962.962 0 0 0 .176.017c.27 0 .469-.17.598-.51.164-.433.275-.691.334-.773.223-.293.568-.439 1.037-.439 1.102.07 1.67.673 1.705 1.81v1.108c-2.754 0-4.33.574-4.728 1.722a2.362 2.362 0 0 0-.106.721c0 .891.393 1.5 1.178 1.828.316.129.65.193 1.002.193.855 0 1.576-.293 2.162-.878.211-.223.369-.458.474-.704.141 1.043.622 1.571 1.442 1.582Zm-3.498-.703c-.715 0-1.154-.357-1.319-1.072a2.62 2.62 0 0 1-.052-.545c0-.785.451-1.283 1.353-1.494.481-.106 1.178-.164 2.092-.176v1.406c-.176.809-.603 1.377-1.283 1.706-.27.117-.533.175-.791.175Zm9.562.088h-1.265v-3.498c0-1.066.328-1.922.984-2.566.258-.246.475-.375.65-.387.2 0 .381.146.545.439.188.329.364.516.528.563.07.023.14.035.211.035.351 0 .574-.17.668-.51a.671.671 0 0 0 .035-.211c0-.527-.27-.849-.809-.966a1.661 1.661 0 0 0-.334-.036c-.703 0-1.33.299-1.881.897a3.402 3.402 0 0 0-.615.949l-.07-1.74h-2.549v.439h1.318v5.537c0 .54-.152.862-.457.967-.175.059-.463.088-.861.088v.44h4.342c0-.258-.088-.399-.264-.422a.722.722 0 0 0-.176-.018Zm6.575 0h-.879v-7.031h-2.725v.439h1.406v5.537c0 .54-.181.868-.545.985-.175.047-.463.07-.861.07v.44h4.043c0-.258-.088-.399-.264-.422a.866.866 0 0 0-.175-.018Zm-.668-9.597c0-.411-.182-.704-.545-.879a1.047 1.047 0 0 0-.405-.088c-.41 0-.703.187-.879.562a.977.977 0 0 0-.087.405c0 .433.193.732.58.896.129.047.257.07.386.07.41 0 .698-.187.862-.562a.977.977 0 0 0 .088-.404Zm5.589 9.597h-.791v-3.797c.036-1.09.422-1.875 1.161-2.355.316-.199.638-.299.966-.299.715 0 1.202.334 1.459 1.002.106.269.159.574.159.914v3.48c0 .54-.153.862-.457.967-.176.059-.463.088-.862.088v.44h3.955c0-.258-.088-.399-.263-.422a.727.727 0 0 0-.176-.018h-.879v-4.359c0-1.172-.404-2.01-1.213-2.514a2.33 2.33 0 0 0-1.213-.334c-.867 0-1.582.346-2.144 1.037a3.57 3.57 0 0 0-.51.897l-.071-1.758h-2.548v.439h1.318v5.537c0 .54-.152.862-.457.967-.176.059-.463.088-.861.088v.44h3.867c0-.258-.088-.399-.264-.422a.722.722 0 0 0-.176-.018Zm8.315-4.43c.023-1.546.609-2.326 1.758-2.337 1.148.023 1.728.802 1.74 2.337-.024 1.594-.604 2.397-1.74 2.409-1.16-.024-1.746-.826-1.758-2.409Zm1.775-2.777c-1.054 0-1.892.34-2.513 1.02a2.59 2.59 0 0 0-.668 1.775c0 .891.433 1.629 1.3 2.215.082.059.164.111.246.158-.75 0-1.218.322-1.406.967a2.034 2.034 0 0 0-.052.457c.011.621.263 1.084.755 1.389-.386.41-.58.826-.58 1.248 0 .644.381 1.125 1.143 1.441.48.211 1.072.316 1.775.316 1.781 0 2.959-.433 3.533-1.3.188-.293.282-.604.282-.932 0-1.008-.58-1.588-1.741-1.74a3.038 3.038 0 0 0-.474-.035l-3.199-.071c-.539-.035-.815-.269-.827-.703 0-.304.194-.498.581-.58.082-.012.169-.017.263-.017l1.547.017c1.043 0 1.875-.351 2.496-1.055a2.612 2.612 0 0 0 .668-1.793c-.012-.878-.351-1.582-1.019-2.109.105-.375.304-.598.597-.668a.567.567 0 0 1 .141-.017c.164 0 .34.087.527.263.129.117.246.176.352.176.293-.07.463-.258.51-.562 0-.364-.17-.61-.51-.739a1.123 1.123 0 0 0-.387-.07c-.551 0-.996.246-1.336.738a2.338 2.338 0 0 0-.299.615 3.696 3.696 0 0 0-1.705-.404Zm0 10.529c-1.16 0-1.892-.304-2.197-.914a1.092 1.092 0 0 1-.123-.492c.012-.316.152-.633.422-.949.234.047.428.07.58.07l2.707.035c.879.012 1.389.211 1.529.598.035.094.053.211.053.352 0 .515-.481.89-1.441 1.125a6.312 6.312 0 0 1-1.53.175Z"/>
  <defs>
    <filter id="a" width="41.391" height="67.651" x="135.196" y="72.883" color-interpolation-filters="sRGB" filterUnits="userSpaceOnUse">
      <feFlood flood-opacity="0" result="BackgroundImageFix"/>
      <feColorMatrix in="SourceAlpha" result="hardAlpha" values="0 0 0 0 0 0 0 0 0 0 0 0 0 0 0 0 0 0 127 0"/>
      <feOffset dy=".764"/>
      <feGaussianBlur stdDeviation=".382"/>
      <feComposite in2="hardAlpha" operator="out"/>
      <feColorMatrix values="0 0 0 0 0 0 0 0 0 0 0 0 0 0 0 0 0 0 0.25 0"/>
      <feBlend in2="BackgroundImageFix" result="effect1_dropShadow_1205_497"/>
      <feBlend in="SourceGraphic" in2="effect1_dropShadow_1205_497" result="shape"/>
    </filter>
    <filter id="b" width="57.338" height="89.961" x="76.371" y="63.492" color-interpolation-filters="sRGB" filterUnits="userSpaceOnUse">
      <feFlood flood-opacity="0" result="BackgroundImageFix"/>
      <feColorMatrix in="SourceAlpha" result="hardAlpha" values="0 0 0 0 0 0 0 0 0 0 0 0 0 0 0 0 0 0 127 0"/>
      <feOffset dy=".32"/>
      <feGaussianBlur stdDeviation=".16"/>
      <feComposite in2="hardAlpha" operator="out"/>
      <feColorMatrix values="0 0 0 0 0 0 0 0 0 0 0 0 0 0 0 0 0 0 0.25 0"/>
      <feBlend in2="BackgroundImageFix" result="effect1_dropShadow_1205_497"/>
      <feBlend in="SourceGraphic" in2="effect1_dropShadow_1205_497" result="shape"/>
    </filter>
  </defs>
</svg>
